<svg xmlns="http://www.w3.org/2000/svg" viewBox="0 0 1938 1938"><title>bigrpicture logo black</title><g id="Ring_Black" data-name="Ring Black"><path d="M1458.54,644.17q-18.76-8.85-37.25-16.15t-36.73-13q-42.2-13.54-111.49-23.44-69.28-10.94-115.66-10.94a627.17,627.17,0,0,0-153.69,18.76A316.62,316.62,0,0,0,969,609.84a316.62,316.62,0,0,0-34.72-10.48,627.17,627.17,0,0,0-153.69-18.76q-46.38,0-115.66,10.94-69.29,9.9-111.49,23.44-18.24,5.74-36.73,13t-37.25,16.15q-37,18.24-37,38,0,17.19,5.21,27.09t21.36,9.9q6.76,0,64.08-16.67,4.16,37,6.25,70.85T541.46,839A733.1,733.1,0,0,1,537,914.56q-4.43,42.2-11.72,88-3.65,22.93-6.25,40.38t-5.21,29.44q-4.69,26.57-8.86,50.8t-7.29,53.4a524,524,0,0,0-3.13,55.74q0,42.2,3.65,63.56a62.44,62.44,0,0,0,20.32,37Q534.68,1347,569.59,1347q12.5,0,26-8.08t20.84-19q-17.72-28.13-24-56t-6.25-63.3q0-19.79,1.56-40.64T592,1116.7q5.2-43.76,18.76-120.87,7.81-44.27,12.5-73.46,2.6-14.58,4.43-28.65t2.87-27.61q1-13.54,1.82-28.13t.78-30.22q0-26-8.86-67.21t-20.84-60.43q19.79-4.16,37.25-7.29t32.56-5.73q15.1-2.6,33.08-4.69t38.29-4.17q20.83-2.08,37.25-3.13t28.39-1a289.18,289.18,0,0,1,70,8.52c-.72.64-1.45,1.26-2.16,1.9Q826.59,711.38,826.59,790q0,50,37.51,96.9a396.68,396.68,0,0,0,35.18,38q-4.13,2.51-8.24,5-18.76,11.21-38,21.1-53.67,27.62-123.47,38.55-9.38,1.05-18.49,1.82T694.11,993q-7.81.78-13.81,1.56c-4,.52-6.86,1-8.6,1.3q-20.32,5.74-20.32,34.91,0,34.38,19.28,47.41,27.61-2.08,45.06-2.87t25.27-.78q37.51,0,54.7,5.73,10.94,4.18,95.34,70.33l2,1.59c-9.9,7-19.42,13.79-28.44,20.29q-22.92,15.63-50.54,34.65t-61,41.42q-33.33,22.41-58.61,38.81t-43,27.35q.53,20.84,21.88,31.78t43.24,10.94q28.66,0,57.57-12.76t63.3-35.17q18.24-12,44.8-31.52t62.52-47.67q6.95-5.3,24.15-18.63,17.18,13.32,24.15,18.63,35.95,28.13,62.52,47.67t44.8,31.52q34.38,22.41,63.3,35.17t57.57,12.76q21.88,0,43.24-10.94t21.88-31.78q-17.72-10.94-43-27.35t-58.61-38.81q-33.35-22.39-61-41.42t-50.54-34.65c-9-6.5-18.53-13.28-28.44-20.29l2-1.59q84.4-66.16,95.34-70.33,17.19-5.73,54.7-5.73,7.81,0,25.27.78t45.06,2.87q19.28-13,19.28-47.41,0-29.17-20.32-34.91c-1.73-.34-4.6-.78-8.6-1.3s-8.6-1-13.81-1.56-10.85-1-16.93-1.56-12.24-1.12-18.49-1.82Q1138.66,978.64,1085,951q-19.27-9.89-38-21.1-4.11-2.45-8.24-5a396.68,396.68,0,0,0,35.18-38q37.51-46.89,37.51-96.9,0-78.66-51.58-125.56c-.71-.65-1.44-1.27-2.16-1.9a289.18,289.18,0,0,1,70-8.52q12,0,28.39,1t37.25,3.13q20.32,2.09,38.29,4.17t33.08,4.69q15.12,2.61,32.56,5.73t37.25,7.29q-12,19.28-20.84,60.43t-8.86,67.21q0,15.63.78,30.22t1.82,28.13q1.05,13.55,2.87,27.61t4.43,28.65q4.69,29.18,12.5,73.46,13.55,77.11,18.76,120.87,2.61,22.41,4.17,43.24t1.56,40.64q0,35.44-6.25,63.3t-24,56q7.3,10.94,20.84,19t26,8.08q34.91,0,51.06-14.07a62.44,62.44,0,0,0,20.32-37q3.65-21.36,3.65-63.56a524,524,0,0,0-3.13-55.74q-3.13-29.17-7.29-53.4t-8.86-50.8q-2.6-12-5.21-29.44t-6.25-40.38q-7.29-45.84-11.72-88a733.1,733.1,0,0,1-4.43-75.54q0-31.77,2.08-65.64t6.25-70.85q57.32,16.68,64.08,16.67,16.15,0,21.36-9.9t5.21-27.09Q1495.53,662.41,1458.54,644.17ZM969,875.83a383.25,383.25,0,0,1-27.8-26.39Q911,818.7,911,789q-.51-21.88,12.76-41.94a154.85,154.85,0,0,1,33.86-36.21q5.55-4.35,11.39-8.37,5.83,4,11.39,8.37a154.85,154.85,0,0,1,33.86,36.21Q1027.53,767.13,1027,789q0,29.7-30.22,60.43A383.25,383.25,0,0,1,969,875.83Zm93.59,157.51q-34.33,23.41-93.59,65.51-59.26-42.1-93.59-65.51,49.84-26.23,93.59-54.67Q1012.78,1007.1,1062.59,1033.34Z"/><path d="M969,199.34c-430.41,0-779.33,348.92-779.33,779.33S538.59,1758,969,1758s779.33-348.92,779.33-779.33S1399.41,199.34,969,199.34Zm0,1473.49c-383.38,0-694.16-310.79-694.16-694.16S585.62,284.51,969,284.51s694.16,310.79,694.16,694.16S1352.38,1672.84,969,1672.84Z"/></g></svg>