<?xml version="1.0" encoding="UTF-8" standalone="no"?>
<!DOCTYPE svg PUBLIC "-//W3C//DTD SVG 1.1//EN" "http://www.w3.org/Graphics/SVG/1.1/DTD/svg11.dtd">
<svg width="100%" height="100%" viewBox="0 0 8075 8075" version="1.1" xmlns="http://www.w3.org/2000/svg" xmlns:xlink="http://www.w3.org/1999/xlink" xml:space="preserve" xmlns:serif="http://www.serif.com/" style="fill-rule:evenodd;clip-rule:evenodd;stroke-linejoin:round;stroke-miterlimit:2;">
    <g transform="matrix(1,0,0,1,-18168.75,0)">
        <g id="Page-3" serif:id="Page 3" transform="matrix(4.166667,0,0,4.166667,18168.75,0)">
            <rect x="0" y="0" width="1938" height="1938" style="fill:none;"/>
            <g id="Black-Outline" serif:id="Black Outline">
            </g>
            <g id="Ring-Black" serif:id="Ring Black">
                <g transform="matrix(1,0,0,1,1062.5918,894.9889)">
                    <path d="M0,128.68C-22.887,144.285 -54.086,166.123 -93.592,194.193C-133.098,166.123 -164.297,144.285 -187.184,128.68C-153.96,111.194 -122.781,92.964 -93.592,74.011C-64.402,92.964 -33.224,111.194 0,128.68M-93.592,-28.833C-103.385,-37.268 -112.673,-46.05 -121.388,-55.225C-141.527,-75.714 -151.605,-95.861 -151.605,-115.658C-151.946,-130.246 -147.697,-144.222 -138.841,-157.597C-129.984,-170.963 -118.693,-183.035 -104.978,-193.805C-101.279,-196.705 -97.479,-199.489 -93.592,-202.176C-89.705,-199.489 -85.904,-196.705 -82.206,-193.805C-68.49,-183.035 -57.199,-170.963 -48.343,-157.597C-39.486,-144.222 -35.237,-130.246 -35.578,-115.658C-35.578,-95.861 -45.656,-75.714 -65.796,-55.225C-74.511,-46.05 -83.799,-37.268 -93.592,-28.833M395.945,-260.491C383.441,-266.392 371.027,-271.773 358.695,-276.641C346.371,-281.501 334.128,-285.839 321.966,-289.666C293.833,-298.693 256.673,-306.507 210.477,-313.11C164.288,-320.403 125.736,-324.05 94.818,-324.05C42.029,-324.05 -9.198,-317.799 -58.87,-305.295C-70.874,-302.4 -82.443,-298.902 -93.592,-294.817C-104.74,-298.902 -116.31,-302.4 -128.313,-305.295C-177.985,-317.799 -229.213,-324.05 -282.002,-324.05C-312.92,-324.05 -351.472,-320.403 -397.66,-313.11C-443.856,-306.507 -481.017,-298.693 -509.149,-289.666C-521.312,-285.839 -533.555,-281.501 -545.879,-276.641C-558.211,-271.773 -570.625,-266.392 -583.129,-260.491C-607.794,-248.329 -620.118,-235.654 -620.118,-222.459C-620.118,-210.998 -618.385,-201.962 -614.908,-195.368C-611.441,-188.766 -604.318,-185.469 -593.548,-185.469C-589.039,-185.469 -567.679,-191.021 -529.468,-202.141C-526.692,-177.475 -524.608,-153.861 -523.216,-131.288C-521.833,-108.706 -521.132,-86.825 -521.132,-65.644C-521.132,-43.413 -522.614,-18.235 -525.561,9.898C-528.516,38.031 -532.423,67.385 -537.282,97.943C-539.717,113.231 -541.801,126.686 -543.534,138.319C-545.276,149.959 -547.011,159.769 -548.744,167.754C-551.87,185.467 -554.825,202.399 -557.601,218.549C-560.385,234.7 -562.811,252.503 -564.895,271.95C-566.979,291.406 -568.021,309.982 -568.021,327.695C-568.021,355.827 -566.808,377.017 -564.373,391.254C-561.948,405.842 -555.175,418.174 -544.056,428.243C-533.294,437.621 -516.272,442.31 -492.999,442.31C-484.663,442.31 -475.986,439.616 -466.95,434.235C-457.923,428.846 -450.979,422.513 -446.111,415.219C-457.923,396.464 -465.908,377.798 -470.076,359.214C-474.244,340.638 -476.328,319.538 -476.328,295.915C-476.328,282.72 -475.807,269.174 -474.765,255.279C-473.723,241.392 -472.34,226.975 -470.597,212.037C-467.13,182.863 -460.878,142.576 -451.842,91.17C-446.632,61.655 -442.464,37.168 -439.338,17.713C-437.604,7.993 -436.131,-1.564 -434.91,-10.941C-433.697,-20.319 -432.745,-29.517 -432.045,-38.553C-431.353,-47.581 -430.742,-56.958 -430.221,-66.686C-429.7,-76.405 -429.439,-86.484 -429.439,-96.903C-429.439,-114.266 -432.395,-136.668 -438.296,-164.11C-444.206,-191.542 -451.15,-211.689 -459.136,-224.543C-445.94,-227.319 -433.526,-229.753 -421.886,-231.837C-410.253,-233.921 -399.402,-235.825 -389.324,-237.568C-379.255,-239.301 -368.225,-240.864 -356.242,-242.257C-344.26,-243.64 -331.495,-245.032 -317.95,-246.424C-304.062,-247.808 -291.641,-248.85 -280.7,-249.55C-269.759,-250.242 -260.301,-250.592 -252.307,-250.592C-228.418,-250.592 -205.076,-247.748 -182.265,-242.077C-182.982,-241.438 -183.715,-240.82 -184.427,-240.173C-218.812,-208.914 -236.004,-167.056 -236.004,-114.616C-236.004,-81.274 -223.5,-48.973 -198.493,-17.714C-187.621,-4.273 -175.861,8.365 -163.315,20.293C-166.068,21.969 -168.817,23.633 -171.555,25.267C-184.058,32.74 -196.741,39.773 -209.586,46.367C-245.363,64.781 -286.521,77.625 -333.059,84.918C-339.31,85.618 -345.48,86.22 -351.553,86.742C-357.634,87.262 -363.275,87.784 -368.485,88.304C-373.694,88.826 -378.303,89.346 -382.291,89.867C-386.288,90.388 -389.153,90.828 -390.887,91.17C-404.433,94.996 -411.205,106.628 -411.205,126.076C-411.205,148.998 -404.783,164.808 -391.929,173.485C-373.524,172.101 -358.505,171.14 -346.864,170.619C-335.231,170.098 -326.807,169.838 -321.597,169.838C-296.59,169.838 -278.355,171.751 -266.894,175.569C-259.6,178.353 -227.82,201.797 -171.555,245.901C-170.873,246.439 -170.211,246.961 -169.537,247.494C-179.438,254.501 -188.954,261.285 -197.973,267.782C-213.251,278.201 -230.094,289.753 -248.507,302.427C-266.912,315.111 -287.23,328.916 -309.462,343.845C-331.685,358.783 -351.222,371.717 -368.072,382.659C-384.914,393.599 -399.241,402.716 -411.053,410.009C-410.703,423.906 -403.409,434.495 -389.172,441.789C-374.926,449.083 -360.518,452.73 -345.931,452.73C-326.825,452.73 -307.639,448.472 -288.362,439.966C-269.086,431.451 -247.986,419.738 -225.063,404.8C-212.901,396.815 -197.973,386.305 -180.259,373.281C-162.546,360.256 -141.706,344.367 -117.741,325.611C-113.108,322.076 -105.048,315.857 -93.592,306.979C-82.136,315.857 -74.075,322.076 -69.442,325.611C-45.478,344.367 -24.638,360.256 -6.925,373.281C10.789,386.305 25.718,396.815 37.88,404.8C60.803,419.738 81.903,431.451 101.18,439.966C120.456,448.472 139.643,452.73 158.748,452.73C173.336,452.73 187.743,449.083 201.989,441.789C216.227,434.495 223.521,423.906 223.871,410.009C212.059,402.716 197.729,393.599 180.888,382.659C164.037,371.717 144.502,358.783 122.279,343.845C100.048,328.916 79.729,315.111 61.323,302.427C42.91,289.753 26.067,278.201 10.789,267.782C1.771,261.285 -7.745,254.501 -17.646,247.494C-16.973,246.961 -16.311,246.439 -15.629,245.901C40.637,201.797 72.416,178.353 79.71,175.569C91.172,171.751 109.406,169.838 134.413,169.838C139.623,169.838 148.048,170.098 159.681,170.619C171.321,171.14 186.341,172.101 204.745,173.485C217.6,164.808 224.021,148.998 224.021,126.076C224.021,106.628 217.249,94.996 203.703,91.17C201.97,90.828 199.104,90.388 195.107,89.867C191.119,89.346 186.511,88.826 181.302,88.304C176.092,87.784 170.45,87.262 164.369,86.742C158.297,86.22 152.126,85.618 145.875,84.918C99.337,77.625 58.18,64.781 22.402,46.367C9.558,39.773 -3.126,32.74 -15.629,25.267C-18.366,23.633 -21.115,21.969 -23.868,20.293C-11.322,8.365 0.437,-4.273 11.31,-17.714C36.316,-48.973 48.82,-81.274 48.82,-114.616C48.82,-167.056 31.628,-208.914 -2.757,-240.173C-3.469,-240.82 -4.201,-241.438 -4.919,-242.077C17.893,-247.748 41.234,-250.592 65.123,-250.592C73.117,-250.592 82.575,-250.242 93.517,-249.55C104.457,-248.85 116.879,-247.808 130.767,-246.424C144.312,-245.032 157.076,-243.64 169.059,-242.257C181.041,-240.864 192.071,-239.301 202.141,-237.568C212.219,-235.825 223.069,-233.921 234.702,-231.837C246.343,-229.753 258.757,-227.319 271.952,-224.543C263.967,-211.689 257.022,-191.542 251.112,-164.11C245.211,-136.668 242.256,-114.266 242.256,-96.903C242.256,-86.484 242.517,-76.405 243.037,-66.686C243.559,-56.958 244.169,-47.581 244.861,-38.553C245.562,-29.517 246.514,-20.319 247.727,-10.941C248.947,-1.564 250.421,7.993 252.154,17.713C255.28,37.168 259.448,61.655 264.658,91.17C273.694,142.576 279.946,182.863 283.413,212.037C285.156,226.975 286.539,241.392 287.581,255.279C288.623,269.174 289.145,282.72 289.145,295.915C289.145,319.538 287.061,340.638 282.893,359.214C278.725,377.798 270.739,396.464 258.928,415.219C263.796,422.513 270.739,428.846 279.767,434.235C288.803,439.616 297.479,442.31 305.815,442.31C329.089,442.31 346.11,437.621 356.872,428.243C367.991,418.174 374.765,405.842 377.189,391.254C379.624,377.017 380.837,355.827 380.837,327.695C380.837,309.982 379.795,291.406 377.711,271.95C375.627,252.503 373.201,234.7 370.417,218.549C367.642,202.399 364.687,185.467 361.561,167.754C359.827,159.769 358.093,149.959 356.351,138.319C354.617,126.686 352.533,113.231 350.099,97.943C345.239,67.385 341.332,38.031 338.377,9.898C335.431,-18.235 333.948,-43.413 333.948,-65.644C333.948,-86.825 334.649,-108.706 336.032,-131.288C337.425,-153.861 339.509,-177.475 342.284,-202.141C380.495,-191.021 401.855,-185.469 406.364,-185.469C417.135,-185.469 424.258,-188.766 427.725,-195.368C431.201,-201.962 432.935,-210.998 432.935,-222.459C432.935,-235.654 420.61,-248.329 395.945,-260.491" style="fill:white;fill-rule:nonzero;"/>
                </g>
                <g transform="matrix(1,0,0,1,969,274.8361)">
                    <path d="M0,1388.328C-383.376,1388.328 -694.164,1077.54 -694.164,694.164C-694.164,310.787 -383.376,-0.001 0,-0.001C383.376,-0.001 694.164,310.787 694.164,694.164C694.164,1077.54 383.376,1388.328 0,1388.328M0,-85.165C-430.411,-85.165 -779.329,263.752 -779.329,694.164C-779.329,1124.575 -430.411,1473.493 0,1473.493C430.411,1473.493 779.329,1124.575 779.329,694.164C779.329,263.752 430.411,-85.165 0,-85.165" style="fill:white;fill-rule:nonzero;"/>
                </g>
            </g>
        </g>
    </g>
</svg>
